<?xml version="1.0" encoding="utf-8"?>
<!-- Svg Vector Icons : http://www.sfont.cn -->
<!DOCTYPE svg PUBLIC "-//W3C//DTD SVG 1.1//EN" "http://www.w3.org/Graphics/SVG/1.1/DTD/svg11.dtd">
<svg version="1.1" xmlns="http://www.w3.org/2000/svg" xmlns:xlink="http://www.w3.org/1999/xlink" x="0px" y="0px" viewBox="0 0 1000 1000" enable-background="new 0 0 1000 1000" xml:space="preserve">
<metadata> Svg Vector Icons : http://www.sfont.cn </metadata>
<g><path d="M111,332.9h661.2c44.2,0,80.5,36.2,80.5,80.4v95.7H521.1c-23.4,0-44.8,9.6-60.2,25c-15.5,15.4-25,36.7-25,60.2v93c0,23.4,9.5,44.8,25,60.2c15.4,15.4,36.8,25,60.2,25h331.5v124.5c0,44.3-36.2,80.5-80.5,80.5H111c-56.9,1.2-96.9-17.2-100.9-77.7V337C8.3,263.3,36,197.5,92.7,187.9l4.2-0.9h3.5h232L166.2,262h-62C89,272.1,81.8,330.6,111,332.9L111,332.9z M110.3,904.1c-6.1,0-11.1,5.1-11.1,11.2l0,0c0,6.2,5,11.2,11.1,11.2h65.4c6.2,0,11.1-5,11.1-11.2l0,0c0-6.1-5-11.2-11.1-11.2H110.3L110.3,904.1z M579.5,582.3c-32.4,0-58.7,26.3-58.7,58.7c0,32.4,26.3,58.6,58.7,58.6s58.7-26.3,58.7-58.6C638.2,608.6,612,582.3,579.5,582.3L579.5,582.3z M110.3,404.2c-6.1,0-11.1,5-11.1,11.2l0,0c0,6.1,5,11.2,11.1,11.2h65.4c6.2,0,11.1-5.1,11.1-11.2l0,0c0-6.1-5-11.2-11.1-11.2H110.3L110.3,404.2z M712.7,404.2c-6.2,0-11.2,5-11.2,11.2l0,0c0,6.1,5,11.2,11.2,11.2h65.4c6.1,0,11.1-5.1,11.1-11.2l0,0c0-6.1-5.1-11.2-11.1-11.2H712.7L712.7,404.2z M593,404.2c-6.1,0-11.1,5-11.1,11.2l0,0c0,6.1,5.1,11.2,11.1,11.2h65.4c6.1,0,11.2-5.1,11.2-11.2l0,0c0-6.1-5.1-11.2-11.2-11.2H593L593,404.2z M477.3,404.2c-6.1,0-11.1,5-11.1,11.2l0,0c0,6.1,5,11.2,11.1,11.2h65.5c6.1,0,11.1-5.1,11.1-11.2l0,0c0-6.1-5.1-11.2-11.1-11.2H477.3L477.3,404.2z M357.6,404.2c-6.2,0-11.1,5-11.1,11.2l0,0c0,6.1,5,11.2,11.1,11.2h65.4c6.1,0,11.2-5.1,11.2-11.2l0,0c0-6.1-5.1-11.2-11.2-11.2H357.6L357.6,404.2z M230,404.2c-6.1,0-11.1,5-11.1,11.2l0,0c0,6.1,5,11.2,11.1,11.2h65.4c6.1,0,11.1-5.1,11.1-11.2l0,0c0-6.1-5-11.2-11.1-11.2H230L230,404.2z M91.2,457.5c0-6.2-5-11.2-11.1-11.2l0,0c-6.1,0-11.2,5-11.2,11.2v65.4c0,6.1,5.1,11.1,11.2,11.1l0,0c6.1,0,11.1-5,11.1-11.1V457.5L91.2,457.5z M80,928.9C131.5,928.9,28.4,928.9,80,928.9L80,928.9z M91.2,824.4c0-6.1-5-11.2-11.1-11.2l0,0c-6.1,0-11.2,5-11.2,11.2v65.4c0,6.1,5.1,11.1,11.2,11.1l0,0c6.1,0,11.1-5,11.1-11.1V824.4L91.2,824.4z M91.2,704.7c0-6.1-5-11.2-11.1-11.2l0,0c-6.1,0-11.2,5.1-11.2,11.2v65.4c0,6.1,5.1,11.2,11.2,11.2l0,0c6.1,0,11.1-5,11.1-11.2V704.7L91.2,704.7z M91.2,577.1c0-6.1-5-11.1-11.1-11.1l0,0c-6.1,0-11.2,5.1-11.2,11.1v65.4c0,6.2,5.1,11.2,11.2,11.2l0,0c6.1,0,11.1-5,11.1-11.2V577.1L91.2,577.1z M712.7,904.1c-6.2,0-11.2,5.1-11.2,11.2l0,0c0,6.2,5,11.2,11.2,11.2h65.4c6.1,0,11.1-5,11.1-11.2l0,0c0-6.1-5.1-11.2-11.1-11.2H712.7L712.7,904.1z M593,904.1c-6.1,0-11.1,5.1-11.1,11.2l0,0c0,6.2,5.1,11.2,11.1,11.2h65.4c6.1,0,11.2-5,11.2-11.2l0,0c0-6.1-5.1-11.2-11.2-11.2H593L593,904.1z M477.3,904.1c-6.1,0-11.1,5.1-11.1,11.2l0,0c0,6.2,5,11.2,11.1,11.2h65.5c6.1,0,11.1-5,11.1-11.2l0,0c0-6.1-5.1-11.2-11.1-11.2H477.3L477.3,904.1z M357.6,904.1c-6.2,0-11.1,5.1-11.1,11.2l0,0c0,6.2,5,11.2,11.1,11.2h65.4c6.1,0,11.2-5,11.2-11.2l0,0c0-6.1-5.1-11.2-11.2-11.2H357.6L357.6,904.1z M230,904.1c-6.1,0-11.1,5.1-11.1,11.2l0,0c0,6.2,5,11.2,11.1,11.2h65.4c6.1,0,11.1-5,11.1-11.2l0,0c0-6.1-5-11.2-11.1-11.2H230L230,904.1z M111.7,307.1l129,2.5L767.5,95L918,435.3l-39.4,21.1l0.7,63.9L990,458.9L807.8,47.4l-11-25l-25.2,10.3L111.7,307.1L111.7,307.1z M877.1,546.6h-24.4H521.1c-13.1,0-25,5.4-33.7,14.1c-8.6,8.6-14.1,20.6-14.1,33.7v93c0,13,5.4,25,14.1,33.7c8.7,8.6,20.7,14,33.7,14h331.5h24.4V546.6z"/></g>
</svg>